<svg width="182" height="67" viewBox="0 0 182 67" fill="none" xmlns="http://www.w3.org/2000/svg">
<path d="M113.655 49.8306C113.655 44.2669 110.605 41.322 105.483 41.322C100.653 41.322 97.0577 44.5161 97.0577 49.7219C97.0577 55.3218 101.125 58.0153 106.354 58.0153C108.641 58.0153 111.148 57.5486 113.653 56.5428L112.926 52.5943C111.111 53.4914 108.969 53.9943 107.081 53.9943C103.957 53.9943 102.149 52.8322 101.753 50.6552H113.653C113.655 50.6552 113.655 49.9008 113.655 49.8306ZM105.486 44.8401C107.523 44.8401 108.77 45.9591 109.099 48.0342H101.826C102.241 45.9818 103.499 44.8401 105.486 44.8401Z" fill="#2FC18C"/>
<path d="M87.4381 41.322C85.4468 41.322 83.5082 42.2191 82.209 43.5556V36.0438H82.1723L77.4885 37.8379V57.6551H82.209V55.7114C83.5586 57.1454 85.5156 58.0152 87.4748 58.0152C92.1219 58.0152 95.1375 54.3884 95.1375 49.6154C95.1352 44.7313 92.0119 41.322 87.4381 41.322ZM86.1663 53.958C83.6251 53.958 82.1356 52.2341 82.1356 49.6154C82.1356 46.9944 83.6251 45.2002 86.1663 45.2002C88.5632 45.2002 90.1237 46.9944 90.1237 49.6154C90.1237 52.2341 88.5632 53.958 86.1663 53.958Z" fill="#2FC18C"/>
<path d="M67.1747 51.6247L70.4423 41.6799H75.7448L67.6467 62H62.3809L64.6311 56.903L58.9299 41.6799H64.2324L67.1747 51.6247Z" fill="#2FC18C"/>
<path d="M51.8858 44.122C52.8299 42.6132 54.3561 41.6459 56.533 41.6459L58.2401 46.1336L58.2035 46.1698C57.7681 45.9546 57.0417 45.8119 56.1709 45.8119C53.3753 45.8119 51.8858 47.6785 51.8858 50.406V57.6574H47.1654V41.6822H51.8858V44.122Z" fill="#2FC18C"/>
<path d="M39.7204 36.0438V41.6799H44.4409V45.6284H39.7204V51.6587C39.7204 53.3827 40.8455 53.992 42.0807 53.992C42.9148 53.992 43.7511 53.7406 44.4042 53.3464H44.4409V57.2587C43.5335 57.6891 41.8263 58.013 40.6279 58.013C37.1792 58.0153 35 55.7885 35 52.3791V37.8402L39.6838 36.046H39.7204V36.0438Z" fill="#2FC18C"/>
<path d="M19.2087 41.7708L24.9701 51.244C25.2974 51.7771 25.8008 52 26.3369 52C27.1375 52 27.9708 51.439 27.9708 50.4861L28 31.5417C28 30.5888 27.1985 30 26.3953 30C25.8601 30 25.3266 30.2526 25.0002 30.7839L19.2087 40.2291C19.0611 40.4539 19 40.7344 19 40.9851C19.002 41.2674 19.0611 41.5183 19.2087 41.7708Z" fill="#2FC18C"/>
<path d="M13.4415 44.9071L18.7805 55.4381C18.9165 55.7198 19 56.0325 19 56.3121C19 57.2192 18.2887 58 17.4938 58C17.247 58 17.0002 57.9378 16.7552 57.7804L0.738565 47.1872C0.217785 46.8435 0 46.2801 0 45.75C0 44.876 0.575266 44 1.50619 44L12.1568 44.0621C12.7011 44.0642 13.1948 44.3769 13.4415 44.9071Z" fill="#2FC18C"/>
<path d="M12.1117 38H1.47663C0.547216 38 0 37.1532 0 36.3043C0 35.7384 0.219249 35.1746 0.737442 34.8292L16.7552 24.2497C17.0034 24.0936 17.277 24 17.5234 24C18.317 24 19 24.7844 19 25.7268C19 26.0098 18.9184 26.2928 18.7808 26.5736L13.3962 37.1532C13.1226 37.6858 12.657 38 12.1117 38Z" fill="#2FC18C"/>
<path d="M111.273 38.2614V34.7273H129.841V38.2614H122.648V58H118.466V38.2614H111.273ZM131.426 58V40.5455H135.415V43.4545H135.597C135.915 42.447 136.46 41.6705 137.233 41.125C138.013 40.572 138.903 40.2955 139.903 40.2955C140.131 40.2955 140.384 40.3068 140.665 40.3295C140.953 40.3447 141.191 40.3712 141.381 40.4091V44.1932C141.206 44.1326 140.93 44.0795 140.551 44.0341C140.18 43.9811 139.82 43.9545 139.472 43.9545C138.722 43.9545 138.047 44.1174 137.449 44.4432C136.858 44.7614 136.392 45.2045 136.051 45.7727C135.71 46.3409 135.54 46.9962 135.54 47.7386V58H131.426ZM144.114 58V40.5455H148.227V58H144.114ZM146.182 38.0682C145.53 38.0682 144.97 37.8523 144.5 37.4205C144.03 36.9811 143.795 36.4545 143.795 35.8409C143.795 35.2197 144.03 34.6932 144.5 34.2614C144.97 33.822 145.53 33.6023 146.182 33.6023C146.841 33.6023 147.402 33.822 147.864 34.2614C148.333 34.6932 148.568 35.2197 148.568 35.8409C148.568 36.4545 148.333 36.9811 147.864 37.4205C147.402 37.8523 146.841 38.0682 146.182 38.0682ZM152.457 64.5455V40.5455H156.503V43.4318H156.741C156.954 43.0076 157.253 42.5568 157.639 42.0795C158.026 41.5947 158.548 41.1818 159.207 40.8409C159.866 40.4924 160.707 40.3182 161.73 40.3182C163.079 40.3182 164.295 40.6629 165.378 41.3523C166.469 42.0341 167.332 43.0455 167.969 44.3864C168.613 45.7197 168.935 47.3561 168.935 49.2955C168.935 51.2121 168.62 52.8409 167.991 54.1818C167.363 55.5227 166.507 56.5455 165.423 57.25C164.34 57.9545 163.113 58.3068 161.741 58.3068C160.741 58.3068 159.912 58.1402 159.253 57.8068C158.594 57.4735 158.063 57.072 157.662 56.6023C157.268 56.125 156.961 55.6742 156.741 55.25H156.571V64.5455H152.457ZM156.491 49.2727C156.491 50.4015 156.651 51.3902 156.969 52.2386C157.295 53.0871 157.76 53.75 158.366 54.2273C158.98 54.697 159.723 54.9318 160.594 54.9318C161.503 54.9318 162.264 54.6894 162.878 54.2045C163.491 53.7121 163.954 53.0417 164.264 52.1932C164.582 51.3371 164.741 50.3636 164.741 49.2727C164.741 48.1894 164.586 47.2273 164.276 46.3864C163.965 45.5455 163.503 44.8864 162.889 44.4091C162.276 43.9318 161.51 43.6932 160.594 43.6932C159.715 43.6932 158.969 43.9242 158.355 44.3864C157.741 44.8485 157.276 45.4962 156.957 46.3295C156.647 47.1629 156.491 48.1439 156.491 49.2727Z" fill="black"/>
<path d="M167.653 19.5868C167.981 18.7772 168.578 17.8075 168.978 17.4318C169.379 17.056 169.837 16.8007 169.997 16.8643C170.485 17.0578 170.339 19.2979 169.746 20.7422L169.212 22.0398L169.765 22.7624C170.069 23.1599 170.485 23.4958 170.688 23.509C170.901 23.5226 171.047 23.7295 171.031 23.9943C171.014 24.2682 171.257 24.5969 171.628 24.8024C171.972 24.9928 172.243 25.3214 172.23 25.5322C172.217 25.743 172.506 26.2632 172.872 26.6879C173.308 27.1935 173.478 27.5911 173.364 27.8391C173.268 28.0473 173.122 28.2134 173.039 28.2081C172.956 28.2027 171.832 27.4021 170.54 26.4288L168.193 24.6592L167.21 26.6313C166.669 27.7161 166.074 28.8753 165.888 29.2076C165.59 29.7359 165.604 29.9162 165.997 30.6434C166.654 31.8595 166.524 32.1044 165.599 31.3939C165.152 31.0504 164.637 30.8155 164.454 30.8724C164.272 30.929 164.13 30.8597 164.139 30.718C164.148 30.5672 163.709 30.4328 163.08 30.3938C161.769 30.3125 161.801 29.8808 163.14 29.5961L164.056 29.4012L164.862 26.8398C165.306 25.4308 165.736 24.1838 165.818 24.0686C166.006 23.8048 164.662 23.4914 162.828 23.3709C162.055 23.3202 161.033 23.1898 160.558 23.0814C159.819 22.9127 159.731 22.8269 159.945 22.483C160.089 22.2514 160.604 22.0392 161.162 21.9806C161.694 21.9251 162.195 21.7366 162.276 21.5615C162.442 21.1995 163.083 21.1631 163.061 21.5168C163.041 21.843 163.421 21.8299 163.811 21.4906C163.992 21.3337 164.685 21.2311 165.35 21.2631C166.016 21.2952 166.672 21.2621 166.808 21.1899C166.944 21.1178 167.324 20.3963 167.653 19.5868Z" fill="#2FC18C"/>
<path d="M163.133 33.6272C163.072 33.5585 163.159 33.1785 163.326 32.7827C163.721 31.8488 164.1 31.8669 163.765 32.8038C163.485 33.5851 163.305 33.8203 163.133 33.6272Z" fill="#2FC18C"/>
<path d="M161.498 37.0171C161.426 36.9369 161.557 36.5578 161.788 36.1748C162.311 35.3066 162.774 35.2682 162.341 36.129C161.948 36.9079 161.666 37.2057 161.498 37.0171Z" fill="#2FC18C"/>
<path d="M159.604 40.0468C159.658 39.9539 159.864 39.5986 160.064 39.2578C160.383 38.7133 160.835 38.4309 160.813 38.7904C160.792 39.1301 159.974 40.2449 159.756 40.2314C159.619 40.2229 159.551 40.1398 159.604 40.0468Z" fill="#2FC18C"/>
<path d="M116.141 37.8036C116.149 37.6696 116.396 37.5293 116.69 37.492C117.671 37.3667 118.049 37.4095 118.034 37.644C118.026 37.772 117.835 37.8666 117.609 37.8545C117.383 37.8421 116.957 37.8806 116.662 37.9396C116.356 38.0012 116.132 37.9428 116.141 37.8036Z" fill="#2FC18C"/>
<path d="M121.485 38.4343C121.286 38.609 120.042 38.1074 119.965 37.8212C119.913 37.6253 120.098 37.6221 120.63 37.8097C121.421 38.0886 121.671 38.2713 121.485 38.4343Z" fill="#2FC18C"/>
<path d="M113.604 38.8406C112.611 39.2372 112.479 38.8768 113.453 38.4278C114.22 38.0748 114.478 38.0455 114.461 38.3135C114.455 38.4178 114.069 38.655 113.604 38.8406Z" fill="#2FC18C"/>
<path d="M124.705 40.1732C124.683 40.5229 124.39 40.3991 123.672 39.7383C123.247 39.3458 123.134 39.13 123.363 39.1435C123.805 39.1695 124.724 39.8742 124.705 40.1732Z" fill="#2FC18C"/>
<path d="M157.556 43.0432C157.498 42.9774 157.661 42.6141 157.919 42.2358C158.37 41.5752 158.77 41.3503 158.744 41.7722C158.726 42.0663 157.681 43.1838 157.556 43.0432Z" fill="#2FC18C"/>
<path d="M110.197 41.5887C109.881 41.5822 110.034 41.195 110.601 40.5643C110.907 40.2245 111.189 40.0665 111.228 40.2136C111.306 40.5022 110.486 41.5945 110.197 41.5887Z" fill="#2FC18C"/>
<path d="M126.509 42.9579C126.326 42.6896 126.086 42.2807 125.976 42.0489C125.679 41.4243 126.166 41.5454 126.567 42.1961C127.023 42.9346 126.969 43.6332 126.509 42.9579Z" fill="#2FC18C"/>
<path d="M154.827 45.4538C154.746 45.3621 154.943 45.041 155.265 44.7403C155.855 44.1897 156.248 44.0545 156.226 44.4098C156.207 44.7249 154.988 45.6343 154.827 45.4538Z" fill="#2FC18C"/>
<path d="M108.872 44.8742C108.749 44.7367 108.737 44.2945 108.844 43.8917C108.952 43.4887 109.144 43.1657 109.272 43.1736C109.4 43.1815 109.427 43.4196 109.331 43.7028C109.235 43.986 109.143 44.4215 109.126 44.6711C109.105 44.9771 109.022 45.0433 108.872 44.8742Z" fill="#2FC18C"/>
<path d="M127.626 46.6476C127.381 46.6324 127.216 45.2024 127.424 44.8986C127.502 44.7837 127.634 44.897 127.716 45.1504C127.927 45.7971 127.874 46.663 127.626 46.6476Z" fill="#2FC18C"/>
<path d="M151.467 47.1988C151.402 47.0789 151.651 46.8463 152.019 46.6818C152.795 46.3361 153.285 46.2882 153.268 46.5595C153.249 46.8567 151.598 47.4426 151.467 47.1988Z" fill="#2FC18C"/>
<path d="M147.988 48.1778C147.995 48.0682 148.349 47.897 148.777 47.7971C149.803 47.5571 150.186 47.821 149.276 48.1411C148.43 48.4388 147.971 48.4519 147.988 48.1778Z" fill="#2FC18C"/>
<path d="M144.619 49.3558C144.626 49.2385 144.929 49.0555 145.291 48.9488C146.15 48.6966 146.308 48.6967 146.292 48.9501C146.285 49.0655 145.939 49.2543 145.524 49.3697C144.612 49.6233 144.602 49.6231 144.619 49.3558Z" fill="#2FC18C"/>
<path d="M109.048 48.4681C108.768 48.356 108.491 46.9593 108.71 46.7671C108.918 46.5852 109.017 46.7913 109.168 47.7155C109.267 48.3215 109.231 48.5419 109.048 48.4681Z" fill="#2FC18C"/>
<path d="M127.232 50.341C126.986 50.5591 126.937 50.1363 127.117 49.3481C127.224 48.8799 127.415 48.5031 127.541 48.5109C127.753 48.524 127.484 50.1169 127.232 50.341Z" fill="#2FC18C"/>
<path d="M141.139 50.8154C141.028 50.7373 141.307 50.5119 141.758 50.3143C142.21 50.1169 142.671 50.0191 142.782 50.097C142.893 50.1752 142.615 50.4006 142.163 50.5982C141.711 50.7955 141.25 50.8933 141.139 50.8154Z" fill="#2FC18C"/>
<path d="M137.834 52.4539C137.841 52.3382 138.095 52.094 138.398 51.9109C139.02 51.535 139.646 51.4768 139.403 51.8175C139.165 52.1521 137.819 52.698 137.834 52.4539Z" fill="#2FC18C"/>
<path d="M110.591 51.7659C110.357 51.8897 110.085 51.5699 109.711 50.7336C109.578 50.4362 109.559 50.1987 109.669 50.2054C109.988 50.2253 110.825 51.6412 110.591 51.7659Z" fill="#2FC18C"/>
<path d="M125.686 52.9506C124.994 53.6892 124.854 53.3213 125.5 52.4637C125.897 51.9371 126.343 51.7461 126.318 52.1139C126.311 52.2097 126.027 52.5863 125.686 52.9506Z" fill="#2FC18C"/>
<path d="M134.879 54.5556C134.661 54.5417 134.808 54.3317 135.266 54.0046C135.989 53.4875 136.366 53.3581 136.348 53.6329C136.333 53.8879 135.233 54.5781 134.879 54.5556Z" fill="#2FC18C"/>
<path d="M113.06 54.4704C112.877 54.631 111.627 53.6399 111.645 53.3486C111.666 53.0063 111.895 53.1044 112.574 53.7465C112.921 54.075 113.14 54.4006 113.06 54.4704Z" fill="#2FC18C"/>
<path d="M122.366 55.7835C122.303 55.7131 122.516 55.4095 122.838 55.1088C123.442 54.5453 123.821 54.424 123.798 54.8018C123.78 55.0829 122.514 55.9506 122.366 55.7835Z" fill="#2FC18C"/>
<path d="M131.713 56.2515C131.72 56.1277 132.026 55.8935 132.392 55.7314C133.339 55.3111 133.584 55.6232 132.678 56.096C131.816 56.5459 131.693 56.5656 131.713 56.2515Z" fill="#2FC18C"/>
<path d="M116.023 56.683C115.861 56.9107 115.444 56.7111 114.657 56.0284C114.069 55.5182 114.617 55.5426 115.498 56.066C115.871 56.2872 116.107 56.5649 116.023 56.683Z" fill="#2FC18C"/>
<path d="M119.015 57.3252C118.668 57.3037 119.099 56.8794 119.742 56.61C120.174 56.4291 120.555 56.2759 120.587 56.2698C120.62 56.2636 120.638 56.4053 120.627 56.5847C120.611 56.8379 119.487 57.3544 119.015 57.3252Z" fill="#2FC18C"/>
<path d="M109.821 56.755C109.368 56.7269 108.177 56.1249 108.189 55.9302C108.206 55.6547 108.37 55.6751 109.282 56.0678C109.977 56.3669 110.305 56.785 109.821 56.755Z" fill="#2FC18C"/>
<path d="M129.145 57.7897C128.152 58.1863 128.02 57.8259 128.994 57.3769C129.761 57.0239 130.019 56.9946 130.002 57.2626C129.996 57.3669 129.61 57.6041 129.145 57.7897Z" fill="#2FC18C"/>
<path d="M115.9 57.8164C115.074 57.7906 115.307 57.3678 116.166 57.3328C116.588 57.3157 117.028 57.3545 117.145 57.4192C117.42 57.571 116.585 57.8376 115.9 57.8164Z" fill="#2FC18C"/>
<path d="M118.07 57.9678C117.739 57.819 117.53 57.6106 117.606 57.5045C117.763 57.2847 119.372 57.8362 119.355 58.1042C119.34 58.3481 118.784 58.2891 118.07 57.9678Z" fill="#2FC18C"/>
<path d="M112.688 57.6335C112.244 57.606 111.822 57.4748 111.751 57.3418C111.672 57.1959 111.997 57.1236 112.572 57.1592C113.096 57.1917 113.518 57.3229 113.51 57.4509C113.502 57.5789 113.132 57.6611 112.688 57.6335Z" fill="#2FC18C"/>
<path d="M125.185 59.0081C124.378 59.1821 124.684 58.6944 125.512 58.4865C126.542 58.2276 126.646 58.2273 126.63 58.4825C126.623 58.6019 126.402 58.7459 126.139 58.8025L125.185 59.0081Z" fill="#2FC18C"/>
<path d="M122.808 59.0509C122.604 59.2148 121.195 58.8037 121.209 58.584C121.217 58.4523 121.534 58.4459 121.975 58.5685C122.764 58.7882 122.98 58.9132 122.808 59.0509Z" fill="#2FC18C"/>
</svg>
