<svg width="358" height="360" viewBox="0 0 358 360" fill="none" xmlns="http://www.w3.org/2000/svg">
<path fill-rule="evenodd" clip-rule="evenodd" d="M116.492 0.955321C91.2395 4.19732 66.0105 15.7043 46.1545 33.0343C28.5945 48.3613 14.2055 69.7173 7.5565 90.3203C3.6645 102.384 2.9345 105.439 1.3495 116.32C-6.3135 168.927 19.1805 222.921 64.5525 250.177C98.6735 270.674 139.976 275.316 176.856 262.797C185.393 259.9 200.083 252.744 206.356 248.427L211.356 244.986L267.857 301.321C316.189 349.511 324.935 357.81 328.357 358.732C337.476 361.187 344.574 359.376 350.993 352.957C357.979 345.971 359.777 336.65 355.82 327.929C354.34 324.668 339.727 309.386 299.092 268.607C268.987 238.395 244.195 213.51 243.998 213.307C243.801 213.104 245.693 209.644 248.202 205.619C261.323 184.567 267.937 161.065 267.957 135.413C267.981 103.331 258.839 76.5013 239.304 51.3203C218.208 24.1273 187.988 6.55932 153.315 1.33332C142.533 -0.291679 127.411 -0.447679 116.492 0.955321ZM148.454 46.3653C166.79 49.5633 181.162 56.6093 194.091 68.7413C215.52 88.8503 225.722 115.607 222.785 143.996C221.055 160.716 215.977 173.533 204.488 190.176C198.114 199.408 190.065 206.228 176.664 213.75C152.248 227.456 121.114 228.091 95.3565 215.409C71.1135 203.472 55.5095 184.466 47.6675 157.32C45.6845 150.455 45.3695 147.193 45.4465 134.32C45.5255 121.093 45.8515 118.282 48.2015 110.538C61.7715 65.8193 104.214 38.6503 148.454 46.3653Z" fill="white"/>
</svg>
