<svg width="405" height="276" viewBox="0 0 405 276" fill="none" xmlns="http://www.w3.org/2000/svg">
<path fill-rule="evenodd" clip-rule="evenodd" d="M193.263 1.87107C191.338 2.90807 147.41 46.2011 95.6446 98.0771C10.8246 183.081 1.42757 192.811 0.51757 196.584C-0.61843 201.292 0.144568 206.932 2.52157 211.398C4.83257 215.741 63.2346 273.582 66.5776 274.839C70.7306 276.401 78.9046 276.126 82.5626 274.302C84.3226 273.424 111.972 246.542 144.005 214.563L202.246 156.421L260.505 214.612C300.727 254.789 319.914 273.283 322.481 274.351C327.546 276.459 334.564 276.301 339.053 273.978C341.093 272.922 356.31 258.41 372.868 241.728C399.144 215.256 403.104 210.866 403.996 207.212C405.145 202.506 404.384 196.865 401.998 192.398C401.117 190.748 358.403 147.453 307.079 96.1861C241.431 30.6121 212.661 2.51907 210.045 1.43607C205.035 -0.636926 197.56 -0.442928 193.263 1.87107Z" fill="white"/>
</svg>
